<svg width="18" height="17" viewBox="0 0 18 17" fill="none" xmlns="http://www.w3.org/2000/svg">
<path d="M6.17731 5.50543L1.39231 6.19918L1.30756 6.21643C1.17927 6.25049 1.06231 6.31799 0.968633 6.41203C0.874956 6.50608 0.807916 6.6233 0.77436 6.75173C0.740804 6.88015 0.741934 7.01519 0.777634 7.14303C0.813335 7.27088 0.882326 7.38697 0.977564 7.47943L4.44406 10.8537L3.62656 15.6199L3.61681 15.7024C3.60896 15.8351 3.63651 15.9675 3.69665 16.0861C3.75679 16.2046 3.84735 16.305 3.95907 16.3771C4.07078 16.4491 4.19963 16.4901 4.33243 16.496C4.46522 16.5019 4.59719 16.4723 4.71481 16.4104L8.99431 14.1604L13.2641 16.4104L13.3391 16.4449C13.4629 16.4937 13.5974 16.5086 13.7289 16.4882C13.8604 16.4679 13.9841 16.4129 14.0873 16.3289C14.1905 16.2449 14.2695 16.135 14.3162 16.0104C14.3629 15.8858 14.3756 15.7511 14.3531 15.6199L13.5348 10.8537L17.0028 7.47868L17.0613 7.41493C17.1449 7.31201 17.1997 7.18877 17.2201 7.05778C17.2405 6.92678 17.2259 6.79271 17.1776 6.66923C17.1294 6.54574 17.0493 6.43725 16.9454 6.35482C16.8416 6.27238 16.7178 6.21893 16.5866 6.19993L11.8016 5.50543L9.66257 1.17043C9.60067 1.04483 9.50485 0.939066 9.38596 0.865109C9.26706 0.791151 9.12984 0.751953 8.98981 0.751953C8.84979 0.751953 8.71257 0.791151 8.59367 0.865109C8.47478 0.939066 8.37896 1.04483 8.31706 1.17043L6.17731 5.50543Z" fill="#96E072"/>
</svg>
