<svg width="189" height="77" viewBox="0 0 189 77" fill="none" xmlns="http://www.w3.org/2000/svg">
<path d="M189 61.5C189 70.0604 182.06 77 173.5 77C164.94 77 158 70.0604 158 61.5C158 60.339 158.128 59.2078 158.37 58.1197C159.009 55.2467 158.54 51.9767 156.206 50.1845C155.205 49.4164 153.979 49 152.718 49H24.5C10.969 49 0 38.031 0 24.5C0 10.969 10.969 0 24.5 0H138C151.255 0 162 10.7452 162 24V39.0946C162 41.2714 163.012 43.3245 164.739 44.6501C166.683 46.1423 169.257 46.3873 171.691 46.1044C172.285 46.0355 172.888 46 173.5 46C182.06 46 189 52.9396 189 61.5Z" fill="white"/>
<path d="M36.3584 30H34.4248V16.2393H29.5371V14.499H41.2461V16.2393H36.3584V30ZM42.6538 30V14.499H44.5229V20.6113H44.5659C45.1889 19.3652 46.4135 18.6348 48.1108 18.6348C50.56 18.6348 52.0424 20.2891 52.0424 22.7812V30H50.1733V23.125C50.1733 21.3525 49.2817 20.2891 47.5307 20.2891C45.6723 20.2891 44.5229 21.5566 44.5229 23.4902V30H42.6538ZM58.4559 20.2568C56.705 20.2568 55.4804 21.5996 55.3622 23.458H61.4315C61.3886 21.5889 60.2177 20.2568 58.4559 20.2568ZM61.3886 26.7988H63.2255C62.9032 28.7539 61.0126 30.1934 58.5741 30.1934C55.3729 30.1934 53.4286 27.9697 53.4286 24.457C53.4286 20.9873 55.4052 18.6348 58.4882 18.6348C61.5067 18.6348 63.3651 20.8262 63.3651 24.21V24.9189H55.3514V25.0264C55.3514 27.1641 56.6083 28.5713 58.6171 28.5713C60.035 28.5713 61.077 27.8516 61.3886 26.7988ZM78.781 28.2598V30H69.1775V14.499H78.781V16.2393H71.1111V21.2129H78.3836V22.9316H71.1111V28.2598H78.781ZM80.6076 30V18.8281H82.3693V20.6113H82.4123C83.0354 19.4082 84.2277 18.6348 85.9572 18.6348C88.4064 18.6348 89.8244 20.2139 89.8244 22.749V30H87.9553V23.082C87.9553 21.2773 87.1066 20.2891 85.3879 20.2891C83.6262 20.2891 82.4768 21.5352 82.4768 23.4258V30H80.6076ZM96.2487 20.2568C94.4977 20.2568 93.2731 21.5996 93.1549 23.458H99.2243C99.1813 21.5889 98.0104 20.2568 96.2487 20.2568ZM99.1813 26.7988H101.018C100.696 28.7539 98.8053 30.1934 96.3668 30.1934C93.1657 30.1934 91.2213 27.9697 91.2213 24.457C91.2213 20.9873 93.1979 18.6348 96.2809 18.6348C99.2995 18.6348 101.158 20.8262 101.158 24.21V24.9189H93.1442V25.0264C93.1442 27.1641 94.401 28.5713 96.4098 28.5713C97.8278 28.5713 98.8698 27.8516 99.1813 26.7988ZM102.608 30V18.8281H104.37V20.6543H104.413C104.778 19.4189 105.81 18.6348 107.12 18.6348C107.442 18.6348 107.722 18.6885 107.872 18.71V20.5254C107.722 20.4717 107.324 20.418 106.873 20.418C105.423 20.418 104.478 21.46 104.478 23.0391V30H102.608ZM112.964 28.4424C114.909 28.4424 116.209 26.8311 116.209 24.3711C116.209 21.9111 114.909 20.2783 112.964 20.2783C111.042 20.2783 109.785 21.8682 109.785 24.3711C109.785 26.874 111.042 28.4424 112.964 28.4424ZM113.029 34.2109C110.569 34.2109 108.625 32.8252 108.313 30.9238H110.236C110.601 31.9443 111.708 32.6211 113.104 32.6211C115.038 32.6211 116.209 31.5039 116.209 29.8389V28.0771H116.166C115.478 29.291 114.157 30.0859 112.588 30.0859C109.742 30.0859 107.873 27.8408 107.873 24.3711C107.873 20.8691 109.742 18.6348 112.631 18.6348C114.21 18.6348 115.521 19.4082 116.262 20.708H116.294V18.8281H118.078V29.7744C118.078 32.4385 116.112 34.2109 113.029 34.2109ZM121 34.1787C120.774 34.1787 120.398 34.1572 120.194 34.1143V32.5459C120.398 32.5889 120.688 32.5996 120.925 32.5996C121.967 32.5996 122.547 32.0947 122.977 30.7949L123.234 30.0107L119.109 18.8281H121.107L124.201 28.1309H124.233L127.327 18.8281H129.293L124.899 30.7842C123.943 33.3945 123.019 34.1787 121 34.1787Z" fill="#393636"/>
<rect x="179" y="67" width="12" height="12" rx="6" transform="rotate(180 179 67)" fill="#96E072"/>
</svg>
