<svg width="18" height="18" viewBox="0 0 18 18" fill="none" xmlns="http://www.w3.org/2000/svg">
<path d="M1.875 3.1875C1.875 3.03832 1.93426 2.89524 2.03975 2.78975C2.14524 2.68426 2.28832 2.625 2.4375 2.625H2.856C3.5685 2.625 3.996 3.10425 4.23975 3.54975C4.4025 3.84675 4.52025 4.191 4.6125 4.503C4.63745 4.50103 4.66247 4.50003 4.6875 4.5H14.061C14.6835 4.5 15.1335 5.0955 14.9625 5.69475L13.5915 10.5015C13.4686 10.9326 13.2085 11.312 12.8507 11.5821C12.4929 11.8522 12.0568 11.9984 11.6085 11.9985H7.1475C6.69562 11.9985 6.25624 11.8501 5.89689 11.5762C5.53755 11.3022 5.27812 10.9178 5.1585 10.482L4.5885 8.403L3.6435 5.217L3.64275 5.211C3.52575 4.78575 3.41625 4.3875 3.25275 4.0905C3.096 3.80175 2.97 3.75 2.85675 3.75H2.4375C2.28832 3.75 2.14524 3.69074 2.03975 3.58525C1.93426 3.47976 1.875 3.33668 1.875 3.1875ZM5.67975 8.13L6.243 10.1843C6.3555 10.5908 6.72525 10.8735 7.1475 10.8735H11.6085C11.8123 10.8735 12.0105 10.8071 12.1732 10.6844C12.3358 10.5616 12.4541 10.3892 12.51 10.1932L13.8127 5.625H4.93875L5.66925 8.09025L5.67975 8.13ZM8.25 14.25C8.25 14.6478 8.09196 15.0294 7.81066 15.3107C7.52936 15.592 7.14782 15.75 6.75 15.75C6.35218 15.75 5.97064 15.592 5.68934 15.3107C5.40804 15.0294 5.25 14.6478 5.25 14.25C5.25 13.8522 5.40804 13.4706 5.68934 13.1893C5.97064 12.908 6.35218 12.75 6.75 12.75C7.14782 12.75 7.52936 12.908 7.81066 13.1893C8.09196 13.4706 8.25 13.8522 8.25 14.25ZM7.125 14.25C7.125 14.1505 7.08549 14.0552 7.01517 13.9848C6.94484 13.9145 6.84946 13.875 6.75 13.875C6.65054 13.875 6.55516 13.9145 6.48483 13.9848C6.41451 14.0552 6.375 14.1505 6.375 14.25C6.375 14.3495 6.41451 14.4448 6.48483 14.5152C6.55516 14.5855 6.65054 14.625 6.75 14.625C6.84946 14.625 6.94484 14.5855 7.01517 14.5152C7.08549 14.4448 7.125 14.3495 7.125 14.25ZM13.5 14.25C13.5 14.6478 13.342 15.0294 13.0607 15.3107C12.7794 15.592 12.3978 15.75 12 15.75C11.6022 15.75 11.2206 15.592 10.9393 15.3107C10.658 15.0294 10.5 14.6478 10.5 14.25C10.5 13.8522 10.658 13.4706 10.9393 13.1893C11.2206 12.908 11.6022 12.75 12 12.75C12.3978 12.75 12.7794 12.908 13.0607 13.1893C13.342 13.4706 13.5 13.8522 13.5 14.25ZM12.375 14.25C12.375 14.1505 12.3355 14.0552 12.2652 13.9848C12.1948 13.9145 12.0995 13.875 12 13.875C11.9005 13.875 11.8052 13.9145 11.7348 13.9848C11.6645 14.0552 11.625 14.1505 11.625 14.25C11.625 14.3495 11.6645 14.4448 11.7348 14.5152C11.8052 14.5855 11.9005 14.625 12 14.625C12.0995 14.625 12.1948 14.5855 12.2652 14.5152C12.3355 14.4448 12.375 14.3495 12.375 14.25Z" fill="white"/>
</svg>
