<svg width="189" height="77" viewBox="0 0 189 77" fill="none" xmlns="http://www.w3.org/2000/svg">
<path d="M0 61.5C0 70.0604 6.93959 77 15.5 77C24.0604 77 31 70.0604 31 61.5C31 60.339 30.8724 59.2078 30.6303 58.1197C29.9913 55.2467 30.4597 51.9767 32.7943 50.1845C33.7949 49.4164 35.021 49 36.2824 49H164.5C178.031 49 189 38.031 189 24.5C189 10.969 178.031 0 164.5 0H51C37.7452 0 27 10.7452 27 24V39.0946C27 41.2714 25.9878 43.3245 24.261 44.6501C22.3172 46.1423 19.7431 46.3873 17.3088 46.1044C16.7155 46.0355 16.1119 46 15.5 46C6.93959 46 0 52.9396 0 61.5Z" fill="white"/>
<path d="M64.5771 24.5869C64.5771 28.7764 62.1387 31.2578 58.0029 31.2578C53.6738 31.2578 50.9023 28.0996 50.9023 23.1689C50.9023 18.3242 53.6631 15.2412 58.0029 15.2412C61.3545 15.2412 63.9004 17.2285 64.4805 20.3115H62.4502C61.8057 18.2168 60.1836 17.0244 58.0029 17.0244C54.8125 17.0244 52.8896 19.3232 52.8896 23.1582C52.8896 27.0576 54.8447 29.4746 58.0029 29.4746C60.7529 29.4746 62.6436 27.6914 62.6436 25.0918V24.8125H58.2715V23.1152H64.5771V24.5869ZM66.3286 31V19.8281H68.0903V21.6543H68.1332C68.4985 20.4189 69.5297 19.6348 70.8403 19.6348C71.1625 19.6348 71.4418 19.6885 71.5922 19.71V21.5254C71.4418 21.4717 71.0444 21.418 70.5932 21.418C69.143 21.418 68.1977 22.46 68.1977 24.0391V31H66.3286ZM76.62 21.2568C74.869 21.2568 73.6444 22.5996 73.5263 24.458H79.5956C79.5526 22.5889 78.3817 21.2568 76.62 21.2568ZM79.5526 27.7988H81.3895C81.0673 29.7539 79.1766 31.1934 76.7382 31.1934C73.537 31.1934 71.5927 28.9697 71.5927 25.457C71.5927 21.9873 73.5692 19.6348 76.6522 19.6348C79.6708 19.6348 81.5292 21.8262 81.5292 25.21V25.9189H73.5155V26.0264C73.5155 28.1641 74.7723 29.5713 76.7811 29.5713C78.1991 29.5713 79.2411 28.8516 79.5526 27.7988ZM87.4593 21.2568C85.7083 21.2568 84.4837 22.5996 84.3655 24.458H90.4349C90.3919 22.5889 89.221 21.2568 87.4593 21.2568ZM90.3919 27.7988H92.2288C91.9066 29.7539 90.0159 31.1934 87.5775 31.1934C84.3763 31.1934 82.432 28.9697 82.432 25.457C82.432 21.9873 84.4085 19.6348 87.4915 19.6348C90.5101 19.6348 92.3685 21.8262 92.3685 25.21V25.9189H84.3548V26.0264C84.3548 28.1641 85.6116 29.5713 87.6204 29.5713C89.0384 29.5713 90.0804 28.8516 90.3919 27.7988ZM93.8191 31V19.8281H95.5808V21.6113H95.6238C96.2468 20.4082 97.4392 19.6348 99.1687 19.6348C101.618 19.6348 103.036 21.2139 103.036 23.749V31H101.167V24.082C101.167 22.2773 100.318 21.2891 98.5994 21.2891C96.8377 21.2891 95.6882 22.5352 95.6882 24.4258V31H93.8191ZM109.213 31.1934C106.366 31.1934 104.433 28.916 104.433 25.4141C104.433 21.9121 106.356 19.6348 109.17 19.6348C110.771 19.6348 112.06 20.4189 112.726 21.6436H112.769V15.499H114.638V31H112.855V29.1094H112.822C112.103 30.3984 110.824 31.1934 109.213 31.1934ZM109.568 21.2783C107.591 21.2783 106.345 22.8896 106.345 25.4141C106.345 27.9492 107.591 29.5498 109.568 29.5498C111.49 29.5498 112.779 27.917 112.779 25.4141C112.779 22.9219 111.49 21.2783 109.568 21.2783ZM121.202 21.2568C119.451 21.2568 118.226 22.5996 118.108 24.458H124.177C124.134 22.5889 122.964 21.2568 121.202 21.2568ZM124.134 27.7988H125.971C125.649 29.7539 123.758 31.1934 121.32 31.1934C118.119 31.1934 116.174 28.9697 116.174 25.457C116.174 21.9873 118.151 19.6348 121.234 19.6348C124.253 19.6348 126.111 21.8262 126.111 25.21V25.9189H118.097V26.0264C118.097 28.1641 119.354 29.5713 121.363 29.5713C122.781 29.5713 123.823 28.8516 124.134 27.7988ZM127.658 31V15.499H129.527V31H127.658ZM145.824 19.8281L142.709 31H140.807L138.283 22.3525H138.24L135.726 31H133.825L130.699 19.8281H132.557L134.792 28.916H134.834L137.359 19.8281H139.164L141.699 28.916H141.742L143.976 19.8281H145.824ZM150.39 29.6035C152.151 29.6035 153.505 28.3682 153.505 26.7568V25.8438L150.519 26.0264C149.015 26.123 148.155 26.7891 148.155 27.8418C148.155 28.9053 149.047 29.6035 150.39 29.6035ZM149.971 31.1934C147.747 31.1934 146.254 29.8506 146.254 27.8418C146.254 25.9297 147.726 24.7266 150.304 24.5762L153.505 24.3936V23.459C153.505 22.0947 152.603 21.2783 151.056 21.2783C149.616 21.2783 148.714 21.9551 148.478 23.0508H146.673C146.802 21.1172 148.456 19.6348 151.099 19.6348C153.72 19.6348 155.374 21.0527 155.374 23.2764V31H153.602V29.0771H153.559C152.893 30.3555 151.475 31.1934 149.971 31.1934ZM157.405 31V15.499H159.274V31H157.405Z" fill="#393636"/>
<rect width="12" height="12" rx="6" transform="matrix(1 0 0 -1 10 67)" fill="#96E072"/>
</svg>
