<svg width="17" height="20" viewBox="0 0 17 20" fill="none" xmlns="http://www.w3.org/2000/svg">
<path d="M16.5 9.99998C16.5006 10.2546 16.4353 10.5051 16.3105 10.727C16.1856 10.949 16.0055 11.1348 15.7875 11.2665L2.28 19.5297C2.05227 19.6691 1.79144 19.7452 1.52445 19.7502C1.25746 19.7551 0.993989 19.6887 0.76125 19.5578C0.530728 19.4289 0.338696 19.2409 0.204904 19.0132C0.0711107 18.7855 0.000385179 18.5263 0 18.2622V1.73779C0.000385179 1.47368 0.0711107 1.21445 0.204904 0.986734C0.338696 0.759022 0.530728 0.571057 0.76125 0.442167C0.993989 0.311244 1.25746 0.244825 1.52445 0.249769C1.79144 0.254713 2.05227 0.330842 2.28 0.470292L15.7875 8.73342C16.0055 8.86511 16.1856 9.05097 16.3105 9.27291C16.4353 9.49485 16.5006 9.74533 16.5 9.99998Z" fill="#2B2A26"/>
</svg>
