<svg width="24" height="24" viewBox="0 0 24 24" fill="none" xmlns="http://www.w3.org/2000/svg">
<path d="M12 0C12.3266 4.30807e-05 12.6418 0.119942 12.8858 0.336954C13.1299 0.553966 13.2858 0.852998 13.324 1.17733L13.3333 1.33333V22.6667C13.333 23.0065 13.2028 23.3334 12.9695 23.5805C12.7362 23.8276 12.4174 23.9763 12.0781 23.9962C11.7389 24.0161 11.4048 23.9058 11.1442 23.6876C10.8836 23.4695 10.7161 23.1601 10.676 22.8227L10.6667 22.6667V1.33333C10.6667 0.979711 10.8071 0.640573 11.0572 0.390524C11.3072 0.140476 11.6464 0 12 0ZM6.66667 4C7.02029 4 7.35943 4.14048 7.60948 4.39052C7.85952 4.64057 8 4.97971 8 5.33333V18.6667C8 19.0203 7.85952 19.3594 7.60948 19.6095C7.35943 19.8595 7.02029 20 6.66667 20C6.31304 20 5.97391 19.8595 5.72386 19.6095C5.47381 19.3594 5.33333 19.0203 5.33333 18.6667V5.33333C5.33333 4.97971 5.47381 4.64057 5.72386 4.39052C5.97391 4.14048 6.31304 4 6.66667 4ZM17.3333 4C17.687 4 18.0261 4.14048 18.2761 4.39052C18.5262 4.64057 18.6667 4.97971 18.6667 5.33333V18.6667C18.6667 19.0203 18.5262 19.3594 18.2761 19.6095C18.0261 19.8595 17.687 20 17.3333 20C16.9797 20 16.6406 19.8595 16.3905 19.6095C16.1405 19.3594 16 19.0203 16 18.6667V5.33333C16 4.97971 16.1405 4.64057 16.3905 4.39052C16.6406 4.14048 16.9797 4 17.3333 4ZM1.33333 8C1.68696 8 2.02609 8.14048 2.27614 8.39052C2.52619 8.64057 2.66667 8.97971 2.66667 9.33333V14.6667C2.66667 15.0203 2.52619 15.3594 2.27614 15.6095C2.02609 15.8595 1.68696 16 1.33333 16C0.979711 16 0.640573 15.8595 0.390524 15.6095C0.140476 15.3594 0 15.0203 0 14.6667V9.33333C0 8.97971 0.140476 8.64057 0.390524 8.39052C0.640573 8.14048 0.979711 8 1.33333 8ZM22.6667 8C22.9932 8.00004 23.3084 8.11994 23.5525 8.33695C23.7965 8.55397 23.9525 8.853 23.9907 9.17733L24 9.33333V14.6667C23.9996 15.0065 23.8695 15.3334 23.6362 15.5805C23.4029 15.8276 23.0841 15.9763 22.7448 15.9962C22.4056 16.0161 22.0715 15.9058 21.8109 15.6876C21.5503 15.4695 21.3828 15.1601 21.3427 14.8227L21.3333 14.6667V9.33333C21.3333 8.97971 21.4738 8.64057 21.7239 8.39052C21.9739 8.14048 22.313 8 22.6667 8Z" fill="#96E072"/>
</svg>
