<svg width="21" height="18" viewBox="0 0 21 18" fill="none" xmlns="http://www.w3.org/2000/svg">
<path fill-rule="evenodd" clip-rule="evenodd" d="M18.7747 0.429965C19.0218 0.325956 19.2923 0.290084 19.558 0.326082C19.8237 0.362081 20.0749 0.468633 20.2854 0.63465C20.4959 0.800667 20.6581 1.02008 20.7551 1.27005C20.852 1.52002 20.8802 1.79141 20.8367 2.05597L18.5687 15.813C18.3487 17.14 16.8927 17.901 15.6757 17.24C14.6577 16.687 13.1457 15.835 11.7857 14.946C11.1057 14.501 9.0227 13.076 9.2787 12.062C9.4987 11.195 12.9987 7.93696 14.9987 5.99997C15.7837 5.23897 15.4257 4.79997 14.4987 5.49997C12.1957 7.23797 8.5007 9.88097 7.2787 10.625C6.2007 11.281 5.6387 11.393 4.9667 11.281C3.7407 11.077 2.6037 10.761 1.6757 10.376C0.4217 9.85597 0.4827 8.13197 1.6747 7.62997L18.7747 0.429965Z" fill="#1D1D1D"/>
</svg>
