<svg width="12" height="20" viewBox="0 0 12 20" fill="none" xmlns="http://www.w3.org/2000/svg">
<path d="M0.938696 0.45395C0.657489 0.735242 0.499516 1.1167 0.499516 1.51445C0.499516 1.9122 0.657489 2.29366 0.938696 2.57495L8.3637 9.99995L0.938696 17.4249C0.665459 17.7079 0.514267 18.0868 0.517685 18.4801C0.521102 18.8733 0.678856 19.2496 0.956967 19.5277C1.23508 19.8058 1.6113 19.9635 2.00459 19.967C2.39789 19.9704 2.77679 19.8192 3.0597 19.5459L11.5452 11.0604C11.8264 10.7792 11.9844 10.3977 11.9844 9.99995C11.9844 9.6022 11.8264 9.22074 11.5452 8.93945L3.0597 0.45395C2.7784 0.172744 2.39694 0.0147705 1.9992 0.0147705C1.60145 0.0147705 1.21999 0.172744 0.938696 0.45395Z" fill="black"/>
</svg>
