<svg width="17" height="169" viewBox="0 0 17 169" fill="none" xmlns="http://www.w3.org/2000/svg">
<path d="M8.99479 156.333C8.81798 156.333 8.64841 156.403 8.52339 156.528C8.39836 156.653 8.32812 156.823 8.32812 157V159.666C8.32812 159.843 8.39836 160.013 8.52339 160.138C8.64841 160.263 8.81798 160.333 8.99479 160.333C9.1716 160.333 9.34117 160.263 9.4662 160.138C9.59122 160.013 9.66146 159.843 9.66146 159.666V157C9.66146 156.823 9.59122 156.653 9.4662 156.528C9.34117 156.403 9.1716 156.333 8.99479 156.333Z" fill="black"/>
<path fill-rule="evenodd" clip-rule="evenodd" d="M3.66406 158.333C3.66406 156.919 4.22597 155.562 5.22616 154.562C6.22635 153.562 7.58291 153 8.9974 153C10.4119 153 11.7684 153.562 12.7686 154.562C13.7688 155.562 14.3307 156.919 14.3307 158.333V163.667C14.3307 165.081 13.7688 166.438 12.7686 167.438C11.7684 168.438 10.4119 169 8.9974 169C7.58291 169 6.22635 168.438 5.22616 167.438C4.22597 166.438 3.66406 165.081 3.66406 163.667V158.333ZM12.9974 158.333V163.667C12.9974 164.728 12.576 165.745 11.8258 166.495C11.0757 167.245 10.0583 167.667 8.9974 167.667C7.93653 167.667 6.91911 167.245 6.16897 166.495C5.41882 165.745 4.9974 164.728 4.9974 163.667V158.333C4.9974 157.272 5.41882 156.255 6.16897 155.505C6.91911 154.755 7.93653 154.333 8.9974 154.333C10.0583 154.333 11.0757 154.755 11.8258 155.505C12.576 156.255 12.9974 157.272 12.9974 158.333Z" fill="black"/>
<path d="M7.11719 76.2578C5.72656 76.2578 4.73438 75.0156 4.73438 73.2266C4.73438 71.5469 5.73438 70.3125 7.10938 70.25V71.5469C6.32812 71.6406 5.84375 72.2734 5.84375 73.2734C5.84375 74.2656 6.33594 74.9219 7.04688 74.9219C7.60938 74.9219 7.98438 74.4922 8.21875 73.5703L8.52344 72.3125C8.9375 70.6719 9.53125 70.0781 10.7266 70.0781C12.1406 70.0781 13.1406 71.4141 13.1406 73.3125C13.1406 75.0938 12.1719 76.3359 10.7344 76.4766V75.1172C11.5781 74.9688 12.0312 74.3281 12.0312 73.2266C12.0312 72.125 11.5625 71.4453 10.8281 71.4453C10.25 71.4453 9.9375 71.7812 9.69531 72.6953L9.32812 74.125C8.96094 75.5547 8.22656 76.2578 7.11719 76.2578ZM7.53906 61.8341V63.1622C6.65625 63.3575 5.92969 64.045 5.92969 65.2403C5.92969 66.6466 7.09375 67.5997 8.9375 67.5997C10.8281 67.5997 11.9453 66.6309 11.9453 65.2247C11.9453 64.1153 11.3594 63.3888 10.3828 63.1544L10.3828 61.8184C12 62.0294 13.1406 63.3888 13.1406 65.2325C13.1406 67.4825 11.5547 68.9825 8.9375 68.9825C6.375 68.9825 4.73438 67.4903 4.73438 65.2481C4.73438 63.2169 6.07813 62.0059 7.53906 61.8341ZM13 60.4884H4.875V59.2072H6.20313V59.1759C5.30469 58.9103 4.73438 58.1603 4.73438 57.2072C4.73438 56.9728 4.77344 56.7697 4.78906 56.6603H6.10938C6.07031 56.7697 6.03125 57.0588 6.03125 57.3869C6.03125 58.4416 6.78906 59.1291 7.9375 59.1291H13V60.4884ZM13.1406 52.4944C13.1406 54.7444 11.5234 56.26 8.9375 56.26C6.34375 56.26 4.73438 54.7444 4.73438 52.4944C4.73438 50.2522 6.34375 48.7366 8.9375 48.7366C11.5234 48.7366 13.1406 50.2522 13.1406 52.4944ZM11.9453 52.4944C11.9453 51.0569 10.8516 50.1194 8.9375 50.1194C7.02344 50.1194 5.92969 51.0569 5.92969 52.4944C5.92969 53.9319 7.02344 54.8772 8.9375 54.8772C10.8516 54.8772 11.9453 53.9319 11.9453 52.4944ZM13 47.2113H1.72656L1.72656 45.8519H13V47.2113ZM13 43.8656H1.72656L1.72656 42.5062H13V43.8656ZM13.1406 34.1509C13.1406 36.2212 11.4844 37.6275 8.9375 37.6275C6.39063 37.6275 4.73438 36.2291 4.73438 34.1822C4.73438 33.0181 5.30469 32.0806 6.19531 31.5962V31.565H1.72656V30.2056H13V31.5025H11.625V31.5259C12.5625 32.0494 13.1406 32.9791 13.1406 34.1509ZM5.92969 33.8931C5.92969 35.3306 7.10156 36.2369 8.9375 36.2369C10.7813 36.2369 11.9453 35.3306 11.9453 33.8931C11.9453 32.4947 10.7578 31.5572 8.9375 31.5572C7.125 31.5572 5.92969 32.4947 5.92969 33.8931ZM13.1406 24.9225C13.1406 27.1725 11.5234 28.6881 8.9375 28.6881C6.34375 28.6881 4.73438 27.1725 4.73438 24.9225C4.73438 22.6803 6.34375 21.1647 8.9375 21.1647C11.5234 21.1647 13.1406 22.6803 13.1406 24.9225ZM11.9453 24.9225C11.9453 23.485 10.8516 22.5475 8.9375 22.5475C7.02344 22.5475 5.92969 23.485 5.92969 24.9225C5.92969 26.36 7.02344 27.3053 8.9375 27.3053C10.8516 27.3053 11.9453 26.36 11.9453 24.9225ZM4.875 9.37375L13 11.6394V13.0222L6.71094 14.8581V14.8894L13 16.7175V18.1003L4.875 20.3737V19.0222L11.4844 17.3972V17.3659L4.875 15.53V14.2175L11.4844 12.3737V12.3425L4.875 10.7175V9.37375ZM13 8.17656H4.875V6.89531H6.17188V6.86406C5.29688 6.41093 4.73438 5.54375 4.73438 4.28593C4.73438 2.50468 5.88281 1.47343 7.72656 1.47343H13V2.83281H7.96875C6.65625 2.83281 5.9375 3.45 5.9375 4.7C5.9375 5.98125 6.84375 6.81718 8.21875 6.81718H13V8.17656Z" fill="#2B2A26"/>
<path d="M9 85V145" stroke="black"/>
</svg>
